<svg width="27" height="25" viewBox="0 0 27 25" fill="none" xmlns="http://www.w3.org/2000/svg">
<path d="M13.5 24.7724L11.5425 23.0174C9.26997 20.9699 7.39123 19.2037 5.90623 17.7187C4.42124 16.2337 3.23999 14.9004 2.36249 13.7187C1.485 12.5379 0.872097 11.4525 0.523798 10.4625C0.174599 9.47247 0 8.45997 0 7.42498C0 5.30998 0.708748 3.54374 2.12624 2.12624C3.54374 0.708748 5.30998 0 7.42498 0C8.59497 0 9.70872 0.247499 10.7662 0.742498C11.8237 1.2375 12.735 1.93499 13.5 2.83499C14.265 1.93499 15.1762 1.2375 16.2337 0.742498C17.2912 0.247499 18.4049 0 19.5749 0C21.6899 0 23.4562 0.708748 24.8737 2.12624C26.2912 3.54374 26.9999 5.30998 26.9999 7.42498C26.9999 8.45997 26.8258 9.47247 26.4775 10.4625C26.1283 11.4525 25.5149 12.5379 24.6374 13.7187C23.7599 14.9004 22.5787 16.2337 21.0937 17.7187C19.6087 19.2037 17.7299 20.9699 15.4575 23.0174L13.5 24.7724ZM13.5 21.1274C15.66 19.1924 17.4374 17.5328 18.8324 16.1487C20.2274 14.7654 21.3299 13.5621 22.1399 12.5388C22.9499 11.5146 23.5124 10.6029 23.8274 9.80367C24.1424 9.00537 24.2999 8.21247 24.2999 7.42498C24.2999 6.07498 23.8499 4.94998 22.9499 4.04999C22.0499 3.14999 20.9249 2.69999 19.5749 2.69999C18.5174 2.69999 17.5387 2.99789 16.6387 3.59369C15.7387 4.19039 15.12 4.94998 14.7825 5.87248H12.2175C11.88 4.94998 11.2612 4.19039 10.3612 3.59369C9.46122 2.99789 8.48247 2.69999 7.42498 2.69999C6.07498 2.69999 4.94998 3.14999 4.04999 4.04999C3.14999 4.94998 2.69999 6.07498 2.69999 7.42498C2.69999 8.21247 2.85749 9.00537 3.17249 9.80367C3.48749 10.6029 4.04999 11.5146 4.85998 12.5388C5.66998 13.5621 6.77248 14.7654 8.16748 16.1487C9.56247 17.5328 11.34 19.1924 13.5 21.1274Z" fill="white"/>
</svg>
