<svg width="30" height="31" viewBox="0 0 30 31" fill="none" xmlns="http://www.w3.org/2000/svg">
<path d="M24.6714 23.4222L20.8949 19.6568C22.1134 18.1045 22.7745 16.1875 22.7721 14.2141C22.7721 12.4566 22.2509 10.7386 21.2745 9.27728C20.2981 7.81598 18.9103 6.67704 17.2866 6.00448C15.6629 5.33191 13.8762 5.15594 12.1525 5.49881C10.4287 5.84168 8.84539 6.68799 7.60266 7.93072C6.35993 9.17346 5.51362 10.7568 5.17075 12.4805C4.82788 14.2042 5.00385 15.9909 5.67641 17.6146C6.34897 19.2383 7.48792 20.6261 8.94922 21.6026C10.4105 22.579 12.1285 23.1001 13.886 23.1001C15.8595 23.1026 17.7764 22.4414 19.3287 21.2229L23.0942 24.9995C23.1974 25.1036 23.3203 25.1862 23.4556 25.2426C23.591 25.299 23.7362 25.3281 23.8828 25.3281C24.0294 25.3281 24.1746 25.299 24.31 25.2426C24.4453 25.1862 24.5682 25.1036 24.6714 24.9995C24.7755 24.8962 24.8582 24.7734 24.9146 24.638C24.971 24.5027 25 24.3575 25 24.2109C25 24.0642 24.971 23.9191 24.9146 23.7837C24.8582 23.6483 24.7755 23.5255 24.6714 23.4222ZM7.22151 14.2141C7.22151 12.896 7.61238 11.6075 8.34468 10.5115C9.07699 9.41551 10.1178 8.5613 11.3356 8.05688C12.5534 7.55246 13.8934 7.42048 15.1862 7.67763C16.479 7.93478 17.6665 8.56952 18.5986 9.50157C19.5306 10.4336 20.1653 11.6211 20.4225 12.9139C20.6796 14.2067 20.5477 15.5467 20.0432 16.7645C19.5388 17.9823 18.6846 19.0231 17.5886 19.7554C16.4927 20.4877 15.2041 20.8786 13.886 20.8786C12.1185 20.8786 10.4233 20.1765 9.1735 18.9266C7.92366 17.6768 7.22151 15.9816 7.22151 14.2141Z" fill="#353C49"/>
</svg>
