<svg width="27" height="25" viewBox="0 0 27 25" fill="#000000" xmlns="http://www.w3.org/2000/svg">
<path d="M13.5001 24.7727L11.5426 23.0176C9.27006 20.9701 7.39129 19.2039 5.90629 17.7189C4.42128 16.2339 3.24002 14.9005 2.36251 13.7188C1.48501 12.538 0.872105 11.4526 0.523803 10.4626C0.174601 9.47256 0 8.46005 0 7.42504C0 5.31003 0.708754 3.54377 2.12626 2.12626C3.54377 0.708754 5.31003 0 7.42504 0C8.59505 0 9.70881 0.247501 10.7663 0.742504C11.8238 1.23751 12.7351 1.93501 13.5001 2.83502C14.2651 1.93501 15.1763 1.23751 16.2338 0.742504C17.2914 0.247501 18.4051 0 19.5751 0C21.6901 0 23.4564 0.708754 24.8739 2.12626C26.2914 3.54377 27.0002 5.31003 27.0002 7.42504C27.0002 8.46005 26.826 9.47256 26.4777 10.4626C26.1285 11.4526 25.5152 12.538 24.6376 13.7188C23.7601 14.9005 22.5789 16.2339 21.0939 17.7189C19.6089 19.2039 17.7301 20.9701 15.4576 23.0176L13.5001 24.7727ZM13.5001 21.1276C15.6601 19.1926 17.4376 17.533 18.8326 16.1488C20.2276 14.7655 21.3301 13.5622 22.1401 12.5389C22.9501 11.5147 23.5126 10.603 23.8276 9.80376C24.1426 9.00546 24.3001 8.21255 24.3001 7.42504C24.3001 6.07504 23.8501 4.95003 22.9501 4.05002C22.0501 3.15002 20.9251 2.70002 19.5751 2.70002C18.5176 2.70002 17.5389 2.99792 16.6389 3.59372C15.7388 4.19043 15.1201 4.95003 14.7826 5.87254H12.2176C11.8801 4.95003 11.2613 4.19043 10.3613 3.59372C9.46131 2.99792 8.48255 2.70002 7.42504 2.70002C6.07504 2.70002 4.95003 3.15002 4.05002 4.05002C3.15002 4.95003 2.70002 6.07504 2.70002 7.42504C2.70002 8.21255 2.85752 9.00546 3.17252 9.80376C3.48752 10.603 4.05002 11.5147 4.86003 12.5389C5.67003 13.5622 6.77254 14.7655 8.16755 16.1488C9.56256 17.533 11.3401 19.1926 13.5001 21.1276Z" fill="white"/>
</svg>
